<mxfile host="Electron" modified="2024-06-18T08:42:02.308Z" agent="Mozilla/5.0 (X11; Linux x86_64) AppleWebKit/537.36 (KHTML, like Gecko) draw.io/24.5.1 Chrome/124.0.6367.207 Electron/30.0.6 Safari/537.36" etag="330U7NbCxc6nws7-QLQN" version="24.5.1" type="device">
  <diagram name="Page-1" id="Z05wgaMLPizasvSe_iwF">
    <mxGraphModel dx="878" dy="563" grid="1" gridSize="10" guides="1" tooltips="1" connect="1" arrows="1" fold="1" page="1" pageScale="1" pageWidth="827" pageHeight="1169" background="none" math="0" shadow="0">
      <root>
        <mxCell id="0" />
        <mxCell id="1" parent="0" />
        <mxCell id="VNDBeAea5MQbgjooVeQn-120" value="ETUDIANT" style="swimlane;childLayout=stackLayout;horizontal=1;startSize=50;horizontalStack=0;rounded=0;fontSize=14;fontStyle=0;strokeWidth=1;resizeParent=0;resizeLast=1;shadow=0;dashed=0;align=center;arcSize=4;whiteSpace=wrap;html=1;glass=0;swimlaneLine=1;" parent="1" vertex="1">
          <mxGeometry x="441" y="322" width="120" height="150" as="geometry">
            <mxRectangle x="490" y="90" width="90" height="50" as="alternateBounds" />
          </mxGeometry>
        </mxCell>
        <mxCell id="VNDBeAea5MQbgjooVeQn-121" value="Id&lt;br&gt;Nom&lt;div&gt;Prenom&lt;/div&gt;&lt;div&gt;Adresse&lt;/div&gt;&lt;div&gt;Email&lt;/div&gt;&lt;div&gt;NumTelephone&lt;/div&gt;" style="align=left;strokeColor=none;fillColor=none;spacingLeft=4;fontSize=12;verticalAlign=top;resizable=0;rotatable=0;part=1;html=1;rounded=0;" parent="VNDBeAea5MQbgjooVeQn-120" vertex="1">
          <mxGeometry y="50" width="120" height="100" as="geometry" />
        </mxCell>
        <mxCell id="VNDBeAea5MQbgjooVeQn-139" value="NIVEAU" style="swimlane;childLayout=stackLayout;horizontal=1;startSize=50;horizontalStack=0;rounded=0;fontSize=14;fontStyle=0;strokeWidth=1;resizeParent=0;resizeLast=1;shadow=0;dashed=0;align=center;arcSize=4;whiteSpace=wrap;html=1;" parent="1" vertex="1">
          <mxGeometry x="80" y="359" width="120" height="100" as="geometry" />
        </mxCell>
        <mxCell id="VNDBeAea5MQbgjooVeQn-140" value="Id&lt;div&gt;Nom&lt;/div&gt;" style="align=left;strokeColor=none;fillColor=none;spacingLeft=4;fontSize=12;verticalAlign=top;resizable=0;rotatable=0;part=1;html=1;" parent="VNDBeAea5MQbgjooVeQn-139" vertex="1">
          <mxGeometry y="50" width="120" height="50" as="geometry" />
        </mxCell>
        <mxCell id="VNDBeAea5MQbgjooVeQn-141" value="PARCOURS" style="swimlane;childLayout=stackLayout;horizontal=1;startSize=50;horizontalStack=0;rounded=0;fontSize=14;fontStyle=0;strokeWidth=1;resizeParent=0;resizeLast=1;shadow=0;dashed=0;align=center;arcSize=4;whiteSpace=wrap;html=1;" parent="1" vertex="1">
          <mxGeometry x="80" y="80" width="120" height="100" as="geometry" />
        </mxCell>
        <mxCell id="VNDBeAea5MQbgjooVeQn-142" value="Id&lt;div&gt;Nom&lt;/div&gt;" style="align=left;strokeColor=none;fillColor=none;spacingLeft=4;fontSize=12;verticalAlign=top;resizable=0;rotatable=0;part=1;html=1;" parent="VNDBeAea5MQbgjooVeQn-141" vertex="1">
          <mxGeometry y="50" width="120" height="50" as="geometry" />
        </mxCell>
        <mxCell id="n4uwK2Je5_BCINw1PJ4D-5" style="edgeStyle=orthogonalEdgeStyle;rounded=0;orthogonalLoop=1;jettySize=auto;html=1;entryX=0.5;entryY=0;entryDx=0;entryDy=0;endArrow=none;endFill=0;exitX=0.5;exitY=1;exitDx=0;exitDy=0;" parent="1" source="n4uwK2Je5_BCINw1PJ4D-40" target="VNDBeAea5MQbgjooVeQn-139" edge="1">
          <mxGeometry relative="1" as="geometry">
            <mxPoint x="132" y="289" as="sourcePoint" />
            <mxPoint x="82" y="469" as="targetPoint" />
            <Array as="points" />
          </mxGeometry>
        </mxCell>
        <mxCell id="n4uwK2Je5_BCINw1PJ4D-6" value="1, n" style="edgeLabel;html=1;align=center;verticalAlign=middle;resizable=0;points=[];" parent="n4uwK2Je5_BCINw1PJ4D-5" vertex="1" connectable="0">
          <mxGeometry x="0.475" y="2" relative="1" as="geometry">
            <mxPoint x="-3" y="-3" as="offset" />
          </mxGeometry>
        </mxCell>
        <mxCell id="n4uwK2Je5_BCINw1PJ4D-7" style="edgeStyle=orthogonalEdgeStyle;rounded=0;orthogonalLoop=1;jettySize=auto;html=1;entryX=0.5;entryY=1;entryDx=0;entryDy=0;endArrow=none;endFill=0;exitX=0.5;exitY=0;exitDx=0;exitDy=0;" parent="1" source="n4uwK2Je5_BCINw1PJ4D-40" target="VNDBeAea5MQbgjooVeQn-142" edge="1">
          <mxGeometry relative="1" as="geometry">
            <mxPoint x="160" y="239" as="sourcePoint" />
            <mxPoint x="362" y="309" as="targetPoint" />
          </mxGeometry>
        </mxCell>
        <mxCell id="n4uwK2Je5_BCINw1PJ4D-8" value="1, n" style="edgeLabel;html=1;align=center;verticalAlign=middle;resizable=0;points=[];" parent="n4uwK2Je5_BCINw1PJ4D-7" vertex="1" connectable="0">
          <mxGeometry x="0.475" y="2" relative="1" as="geometry">
            <mxPoint x="1" y="-3" as="offset" />
          </mxGeometry>
        </mxCell>
        <mxCell id="n4uwK2Je5_BCINw1PJ4D-9" style="rounded=0;orthogonalLoop=1;jettySize=auto;html=1;entryX=1;entryY=0.25;entryDx=0;entryDy=0;endArrow=none;endFill=0;exitX=0;exitY=0.5;exitDx=0;exitDy=0;" parent="1" source="n4uwK2Je5_BCINw1PJ4D-51" target="VNDBeAea5MQbgjooVeQn-140" edge="1">
          <mxGeometry relative="1" as="geometry">
            <mxPoint x="252" y="421" as="sourcePoint" />
            <mxPoint x="372" y="289" as="targetPoint" />
          </mxGeometry>
        </mxCell>
        <mxCell id="n4uwK2Je5_BCINw1PJ4D-10" value="1, n" style="edgeLabel;html=1;align=center;verticalAlign=middle;resizable=0;points=[];" parent="n4uwK2Je5_BCINw1PJ4D-9" vertex="1" connectable="0">
          <mxGeometry x="0.475" y="2" relative="1" as="geometry">
            <mxPoint x="-3" y="-3" as="offset" />
          </mxGeometry>
        </mxCell>
        <mxCell id="n4uwK2Je5_BCINw1PJ4D-11" style="rounded=0;orthogonalLoop=1;jettySize=auto;html=1;entryX=0;entryY=0.5;entryDx=0;entryDy=0;endArrow=none;endFill=0;exitX=1;exitY=0.5;exitDx=0;exitDy=0;" parent="1" source="n4uwK2Je5_BCINw1PJ4D-51" target="VNDBeAea5MQbgjooVeQn-121" edge="1">
          <mxGeometry relative="1" as="geometry">
            <mxPoint x="382" y="421" as="sourcePoint" />
            <mxPoint x="372" y="289" as="targetPoint" />
          </mxGeometry>
        </mxCell>
        <mxCell id="n4uwK2Je5_BCINw1PJ4D-12" value="1, 1" style="edgeLabel;html=1;align=center;verticalAlign=middle;resizable=0;points=[];" parent="n4uwK2Je5_BCINw1PJ4D-11" vertex="1" connectable="0">
          <mxGeometry x="0.475" y="2" relative="1" as="geometry">
            <mxPoint x="-1" y="1" as="offset" />
          </mxGeometry>
        </mxCell>
        <mxCell id="n4uwK2Je5_BCINw1PJ4D-25" style="edgeStyle=orthogonalEdgeStyle;rounded=0;orthogonalLoop=1;jettySize=auto;html=1;entryX=1;entryY=0.5;entryDx=0;entryDy=0;endArrow=none;endFill=0;exitX=0;exitY=0.5;exitDx=0;exitDy=0;" parent="1" source="a59o5ENuI0x_Ca8bcvk9-13" target="VNDBeAea5MQbgjooVeQn-121" edge="1">
          <mxGeometry relative="1" as="geometry">
            <mxPoint x="642" y="422" as="sourcePoint" />
            <mxPoint x="582" y="420" as="targetPoint" />
          </mxGeometry>
        </mxCell>
        <mxCell id="n4uwK2Je5_BCINw1PJ4D-26" value="1, n" style="edgeLabel;html=1;align=center;verticalAlign=middle;resizable=0;points=[];" parent="n4uwK2Je5_BCINw1PJ4D-25" vertex="1" connectable="0">
          <mxGeometry x="0.475" y="2" relative="1" as="geometry">
            <mxPoint y="-3" as="offset" />
          </mxGeometry>
        </mxCell>
        <mxCell id="n4uwK2Je5_BCINw1PJ4D-28" value="COURS" style="swimlane;childLayout=stackLayout;horizontal=1;startSize=50;horizontalStack=0;rounded=0;fontSize=14;fontStyle=0;strokeWidth=1;resizeParent=0;resizeLast=1;shadow=0;dashed=0;align=center;arcSize=4;whiteSpace=wrap;html=1;" parent="1" vertex="1">
          <mxGeometry x="621" y="511" width="120" height="118" as="geometry" />
        </mxCell>
        <mxCell id="n4uwK2Je5_BCINw1PJ4D-29" value="Date&lt;div&gt;HeureDebut&lt;/div&gt;&lt;div&gt;HeureFin&lt;/div&gt;" style="align=left;strokeColor=none;fillColor=none;spacingLeft=4;fontSize=12;verticalAlign=top;resizable=0;rotatable=0;part=1;html=1;" parent="n4uwK2Je5_BCINw1PJ4D-28" vertex="1">
          <mxGeometry y="50" width="120" height="68" as="geometry" />
        </mxCell>
        <mxCell id="n4uwK2Je5_BCINw1PJ4D-30" style="edgeStyle=orthogonalEdgeStyle;rounded=0;orthogonalLoop=1;jettySize=auto;html=1;entryX=0.5;entryY=0;entryDx=0;entryDy=0;endArrow=none;endFill=0;exitX=0.5;exitY=1;exitDx=0;exitDy=0;" parent="1" source="a59o5ENuI0x_Ca8bcvk9-13" target="n4uwK2Je5_BCINw1PJ4D-28" edge="1">
          <mxGeometry relative="1" as="geometry">
            <mxPoint x="690" y="459" as="sourcePoint" />
            <mxPoint x="657" y="621" as="targetPoint" />
            <Array as="points" />
          </mxGeometry>
        </mxCell>
        <mxCell id="n4uwK2Je5_BCINw1PJ4D-31" value="1, n" style="edgeLabel;html=1;align=center;verticalAlign=middle;resizable=0;points=[];" parent="n4uwK2Je5_BCINw1PJ4D-30" vertex="1" connectable="0">
          <mxGeometry x="0.475" y="2" relative="1" as="geometry">
            <mxPoint x="-3" y="-3" as="offset" />
          </mxGeometry>
        </mxCell>
        <mxCell id="n4uwK2Je5_BCINw1PJ4D-40" value="" style="shape=ellipse;container=1;horizontal=1;horizontalStack=0;resizeParent=1;resizeParentMax=0;resizeLast=0;html=1;dashed=0;collapsible=0;" parent="1" vertex="1">
          <mxGeometry x="80" y="239" width="120" height="70" as="geometry" />
        </mxCell>
        <mxCell id="n4uwK2Je5_BCINw1PJ4D-41" value="COMPRENDRE" style="html=1;strokeColor=none;fillColor=none;align=center;verticalAlign=middle;rotatable=0;whiteSpace=wrap;" parent="n4uwK2Je5_BCINw1PJ4D-40" vertex="1">
          <mxGeometry y="16.8" width="120" height="17.5" as="geometry" />
        </mxCell>
        <mxCell id="n4uwK2Je5_BCINw1PJ4D-42" value="" style="line;strokeWidth=1;fillColor=none;rotatable=0;labelPosition=right;points=[];portConstraint=eastwest;dashed=0;resizeWidth=1;" parent="n4uwK2Je5_BCINw1PJ4D-40" vertex="1">
          <mxGeometry y="34.3" width="120" height="5.831" as="geometry" />
        </mxCell>
        <mxCell id="n4uwK2Je5_BCINw1PJ4D-51" value="" style="shape=ellipse;container=1;horizontal=1;horizontalStack=0;resizeParent=1;resizeParentMax=0;resizeLast=0;html=1;dashed=0;collapsible=0;" parent="1" vertex="1">
          <mxGeometry x="260" y="415" width="120" height="70" as="geometry" />
        </mxCell>
        <mxCell id="n4uwK2Je5_BCINw1PJ4D-52" value="APPARTENIR" style="html=1;strokeColor=none;fillColor=none;align=center;verticalAlign=middle;rotatable=0;whiteSpace=wrap;" parent="n4uwK2Je5_BCINw1PJ4D-51" vertex="1">
          <mxGeometry y="16.8" width="120" height="17.5" as="geometry" />
        </mxCell>
        <mxCell id="n4uwK2Je5_BCINw1PJ4D-53" value="" style="line;strokeWidth=1;fillColor=none;rotatable=0;labelPosition=right;points=[];portConstraint=eastwest;dashed=0;resizeWidth=1;" parent="n4uwK2Je5_BCINw1PJ4D-51" vertex="1">
          <mxGeometry y="32.09" width="120" height="5.83" as="geometry" />
        </mxCell>
        <mxCell id="XUoQNJqGaztIyCKMaqm2-1" style="rounded=0;orthogonalLoop=1;jettySize=auto;html=1;entryX=1.008;entryY=0.36;entryDx=0;entryDy=0;endArrow=none;endFill=0;exitX=0;exitY=1;exitDx=0;exitDy=0;entryPerimeter=0;" parent="1" source="a59o5ENuI0x_Ca8bcvk9-6" edge="1">
          <mxGeometry relative="1" as="geometry">
            <mxPoint x="259.00800000000004" y="335.99906772800864" as="sourcePoint" />
            <mxPoint x="200.96000000000004" y="396" as="targetPoint" />
          </mxGeometry>
        </mxCell>
        <mxCell id="XUoQNJqGaztIyCKMaqm2-2" value="1, n" style="edgeLabel;html=1;align=center;verticalAlign=middle;resizable=0;points=[];" parent="XUoQNJqGaztIyCKMaqm2-1" vertex="1" connectable="0">
          <mxGeometry x="0.475" y="2" relative="1" as="geometry">
            <mxPoint x="-6" y="1" as="offset" />
          </mxGeometry>
        </mxCell>
        <mxCell id="a59o5ENuI0x_Ca8bcvk9-5" value="" style="shape=ellipse;container=1;horizontal=1;horizontalStack=0;resizeParent=1;resizeParentMax=0;resizeLast=0;html=1;dashed=0;collapsible=0;" parent="1" vertex="1">
          <mxGeometry x="260" y="323" width="120" height="70" as="geometry" />
        </mxCell>
        <mxCell id="a59o5ENuI0x_Ca8bcvk9-6" value="INSCRIPTION" style="html=1;strokeColor=none;fillColor=none;align=center;verticalAlign=middle;rotatable=0;whiteSpace=wrap;" parent="a59o5ENuI0x_Ca8bcvk9-5" vertex="1">
          <mxGeometry y="16.79946668359735" width="119.99999999999999" height="17.49944446208057" as="geometry" />
        </mxCell>
        <mxCell id="a59o5ENuI0x_Ca8bcvk9-7" value="" style="line;strokeWidth=1;fillColor=none;rotatable=0;labelPosition=right;points=[];portConstraint=eastwest;dashed=0;resizeWidth=1;" parent="a59o5ENuI0x_Ca8bcvk9-5" vertex="1">
          <mxGeometry y="33.05450620615219" width="119.99999999999999" height="5.830814894765246" as="geometry" />
        </mxCell>
        <mxCell id="a59o5ENuI0x_Ca8bcvk9-10" style="rounded=0;orthogonalLoop=1;jettySize=auto;html=1;entryX=0;entryY=0.25;entryDx=0;entryDy=0;endArrow=none;endFill=0;exitX=1;exitY=1;exitDx=0;exitDy=0;" parent="1" source="a59o5ENuI0x_Ca8bcvk9-6" target="VNDBeAea5MQbgjooVeQn-121" edge="1">
          <mxGeometry relative="1" as="geometry">
            <mxPoint x="450" y="319" as="sourcePoint" />
            <mxPoint x="370" y="319" as="targetPoint" />
          </mxGeometry>
        </mxCell>
        <mxCell id="a59o5ENuI0x_Ca8bcvk9-11" value="1, n" style="edgeLabel;html=1;align=center;verticalAlign=middle;resizable=0;points=[];" parent="a59o5ENuI0x_Ca8bcvk9-10" vertex="1" connectable="0">
          <mxGeometry x="0.475" y="2" relative="1" as="geometry">
            <mxPoint x="-3" y="1" as="offset" />
          </mxGeometry>
        </mxCell>
        <mxCell id="a59o5ENuI0x_Ca8bcvk9-13" value="" style="shape=ellipse;container=1;horizontal=1;horizontalStack=0;resizeParent=1;resizeParentMax=0;resizeLast=0;html=1;dashed=0;collapsible=0;" parent="1" vertex="1">
          <mxGeometry x="621" y="387" width="120" height="70" as="geometry" />
        </mxCell>
        <mxCell id="a59o5ENuI0x_Ca8bcvk9-14" value="ASSISTER" style="html=1;strokeColor=none;fillColor=none;align=center;verticalAlign=middle;rotatable=0;whiteSpace=wrap;" parent="a59o5ENuI0x_Ca8bcvk9-13" vertex="1">
          <mxGeometry y="16.8" width="120" height="17.5" as="geometry" />
        </mxCell>
        <mxCell id="a59o5ENuI0x_Ca8bcvk9-15" value="" style="line;strokeWidth=1;fillColor=none;rotatable=0;labelPosition=right;points=[];portConstraint=eastwest;dashed=0;resizeWidth=1;" parent="a59o5ENuI0x_Ca8bcvk9-13" vertex="1">
          <mxGeometry y="32.08" width="120" height="5.831" as="geometry" />
        </mxCell>
        <mxCell id="a59o5ENuI0x_Ca8bcvk9-35" value="Presence" style="html=1;strokeColor=none;fillColor=none;align=center;verticalAlign=middle;rotatable=0;whiteSpace=wrap;" parent="a59o5ENuI0x_Ca8bcvk9-13" vertex="1">
          <mxGeometry y="37.910000000000025" width="120" height="17.5" as="geometry" />
        </mxCell>
        <mxCell id="a59o5ENuI0x_Ca8bcvk9-26" style="edgeStyle=orthogonalEdgeStyle;rounded=0;orthogonalLoop=1;jettySize=auto;html=1;entryX=1;entryY=0.25;entryDx=0;entryDy=0;endArrow=none;endFill=0;exitX=0;exitY=0.5;exitDx=0;exitDy=0;" parent="1" source="a59o5ENuI0x_Ca8bcvk9-30" target="a59o5ENuI0x_Ca8bcvk9-34" edge="1">
          <mxGeometry relative="1" as="geometry">
            <mxPoint x="430" y="569" as="sourcePoint" />
            <mxPoint x="370" y="570" as="targetPoint" />
          </mxGeometry>
        </mxCell>
        <mxCell id="a59o5ENuI0x_Ca8bcvk9-27" value="1, n" style="edgeLabel;html=1;align=center;verticalAlign=middle;resizable=0;points=[];" parent="a59o5ENuI0x_Ca8bcvk9-26" vertex="1" connectable="0">
          <mxGeometry x="0.475" y="2" relative="1" as="geometry">
            <mxPoint x="-3" y="-3" as="offset" />
          </mxGeometry>
        </mxCell>
        <mxCell id="a59o5ENuI0x_Ca8bcvk9-28" style="edgeStyle=orthogonalEdgeStyle;rounded=0;orthogonalLoop=1;jettySize=auto;html=1;entryX=0;entryY=0.25;entryDx=0;entryDy=0;endArrow=none;endFill=0;exitX=1;exitY=0.5;exitDx=0;exitDy=0;" parent="1" source="a59o5ENuI0x_Ca8bcvk9-30" target="n4uwK2Je5_BCINw1PJ4D-29" edge="1">
          <mxGeometry relative="1" as="geometry">
            <mxPoint x="560" y="569" as="sourcePoint" />
            <mxPoint x="632" y="570" as="targetPoint" />
          </mxGeometry>
        </mxCell>
        <mxCell id="a59o5ENuI0x_Ca8bcvk9-29" value="1, 1" style="edgeLabel;html=1;align=center;verticalAlign=middle;resizable=0;points=[];" parent="a59o5ENuI0x_Ca8bcvk9-28" vertex="1" connectable="0">
          <mxGeometry x="0.475" y="2" relative="1" as="geometry">
            <mxPoint x="-1" y="1" as="offset" />
          </mxGeometry>
        </mxCell>
        <mxCell id="a59o5ENuI0x_Ca8bcvk9-30" value="" style="shape=ellipse;container=1;horizontal=1;horizontalStack=0;resizeParent=1;resizeParentMax=0;resizeLast=0;html=1;dashed=0;collapsible=0;" parent="1" vertex="1">
          <mxGeometry x="441" y="543" width="120" height="70" as="geometry" />
        </mxCell>
        <mxCell id="a59o5ENuI0x_Ca8bcvk9-31" value="S&#39;EFFECTUER" style="html=1;strokeColor=none;fillColor=none;align=center;verticalAlign=middle;rotatable=0;whiteSpace=wrap;" parent="a59o5ENuI0x_Ca8bcvk9-30" vertex="1">
          <mxGeometry y="16.8" width="120" height="17.5" as="geometry" />
        </mxCell>
        <mxCell id="a59o5ENuI0x_Ca8bcvk9-32" value="" style="line;strokeWidth=1;fillColor=none;rotatable=0;labelPosition=right;points=[];portConstraint=eastwest;dashed=0;resizeWidth=1;" parent="a59o5ENuI0x_Ca8bcvk9-30" vertex="1">
          <mxGeometry y="32.09" width="120" height="5.83" as="geometry" />
        </mxCell>
        <mxCell id="a59o5ENuI0x_Ca8bcvk9-33" value="MATIERE" style="swimlane;childLayout=stackLayout;horizontal=1;startSize=50;horizontalStack=0;rounded=0;fontSize=14;fontStyle=0;strokeWidth=1;resizeParent=0;resizeLast=1;shadow=0;dashed=0;align=center;arcSize=4;whiteSpace=wrap;html=1;" parent="1" vertex="1">
          <mxGeometry x="260" y="511" width="120" height="118" as="geometry" />
        </mxCell>
        <mxCell id="a59o5ENuI0x_Ca8bcvk9-34" value="Id&lt;div&gt;Nom&lt;/div&gt;&lt;div&gt;NbHeure&lt;/div&gt;" style="align=left;strokeColor=none;fillColor=none;spacingLeft=4;fontSize=12;verticalAlign=top;resizable=0;rotatable=0;part=1;html=1;" parent="a59o5ENuI0x_Ca8bcvk9-33" vertex="1">
          <mxGeometry y="50" width="120" height="68" as="geometry" />
        </mxCell>
        <mxCell id="a59o5ENuI0x_Ca8bcvk9-36" style="edgeStyle=orthogonalEdgeStyle;rounded=0;orthogonalLoop=1;jettySize=auto;html=1;entryX=0;entryY=0.25;entryDx=0;entryDy=0;endArrow=none;endFill=0;exitX=1;exitY=0.5;exitDx=0;exitDy=0;" parent="1" source="a59o5ENuI0x_Ca8bcvk9-38" target="a59o5ENuI0x_Ca8bcvk9-34" edge="1">
          <mxGeometry relative="1" as="geometry">
            <mxPoint x="199" y="565" as="sourcePoint" />
            <mxPoint x="260" y="574" as="targetPoint" />
          </mxGeometry>
        </mxCell>
        <mxCell id="a59o5ENuI0x_Ca8bcvk9-37" value="1, 1" style="edgeLabel;html=1;align=center;verticalAlign=middle;resizable=0;points=[];" parent="a59o5ENuI0x_Ca8bcvk9-36" vertex="1" connectable="0">
          <mxGeometry x="0.475" y="2" relative="1" as="geometry">
            <mxPoint x="-1" y="1" as="offset" />
          </mxGeometry>
        </mxCell>
        <mxCell id="a59o5ENuI0x_Ca8bcvk9-38" value="" style="shape=ellipse;container=1;horizontal=1;horizontalStack=0;resizeParent=1;resizeParentMax=0;resizeLast=0;html=1;dashed=0;collapsible=0;" parent="1" vertex="1">
          <mxGeometry x="80" y="543" width="120" height="70" as="geometry" />
        </mxCell>
        <mxCell id="a59o5ENuI0x_Ca8bcvk9-39" value="CONTENIR" style="html=1;strokeColor=none;fillColor=none;align=center;verticalAlign=middle;rotatable=0;whiteSpace=wrap;" parent="a59o5ENuI0x_Ca8bcvk9-38" vertex="1">
          <mxGeometry y="16.8" width="120" height="17.5" as="geometry" />
        </mxCell>
        <mxCell id="a59o5ENuI0x_Ca8bcvk9-40" value="" style="line;strokeWidth=1;fillColor=none;rotatable=0;labelPosition=right;points=[];portConstraint=eastwest;dashed=0;resizeWidth=1;" parent="a59o5ENuI0x_Ca8bcvk9-38" vertex="1">
          <mxGeometry y="32.09" width="120" height="5.83" as="geometry" />
        </mxCell>
        <mxCell id="a59o5ENuI0x_Ca8bcvk9-41" style="edgeStyle=orthogonalEdgeStyle;rounded=0;orthogonalLoop=1;jettySize=auto;html=1;entryX=0.5;entryY=1;entryDx=0;entryDy=0;endArrow=none;endFill=0;exitX=0.5;exitY=0;exitDx=0;exitDy=0;" parent="1" source="a59o5ENuI0x_Ca8bcvk9-38" target="VNDBeAea5MQbgjooVeQn-140" edge="1">
          <mxGeometry relative="1" as="geometry">
            <mxPoint x="420" y="609" as="sourcePoint" />
            <mxPoint x="340" y="609" as="targetPoint" />
          </mxGeometry>
        </mxCell>
        <mxCell id="a59o5ENuI0x_Ca8bcvk9-42" value="1, n" style="edgeLabel;html=1;align=center;verticalAlign=middle;resizable=0;points=[];" parent="a59o5ENuI0x_Ca8bcvk9-41" vertex="1" connectable="0">
          <mxGeometry x="0.475" y="2" relative="1" as="geometry">
            <mxPoint x="-3" y="-3" as="offset" />
          </mxGeometry>
        </mxCell>
        <mxCell id="a59o5ENuI0x_Ca8bcvk9-44" value="ENSEIGNANT" style="swimlane;childLayout=stackLayout;horizontal=1;startSize=50;horizontalStack=0;rounded=0;fontSize=14;fontStyle=0;strokeWidth=1;resizeParent=0;resizeLast=1;shadow=0;dashed=0;align=center;arcSize=4;whiteSpace=wrap;html=1;" parent="1" vertex="1">
          <mxGeometry x="440" y="681" width="120" height="118" as="geometry" />
        </mxCell>
        <mxCell id="a59o5ENuI0x_Ca8bcvk9-45" value="Id&lt;div&gt;Nom&lt;/div&gt;&lt;div&gt;Prenom&lt;/div&gt;" style="align=left;strokeColor=none;fillColor=none;spacingLeft=4;fontSize=12;verticalAlign=top;resizable=0;rotatable=0;part=1;html=1;" parent="a59o5ENuI0x_Ca8bcvk9-44" vertex="1">
          <mxGeometry y="50" width="120" height="68" as="geometry" />
        </mxCell>
        <mxCell id="a59o5ENuI0x_Ca8bcvk9-46" style="edgeStyle=orthogonalEdgeStyle;rounded=0;orthogonalLoop=1;jettySize=auto;html=1;entryX=0;entryY=0.25;entryDx=0;entryDy=0;endArrow=none;endFill=0;exitX=1;exitY=0.5;exitDx=0;exitDy=0;" parent="1" source="a59o5ENuI0x_Ca8bcvk9-48" target="a59o5ENuI0x_Ca8bcvk9-45" edge="1">
          <mxGeometry relative="1" as="geometry">
            <mxPoint x="379" y="735" as="sourcePoint" />
            <mxPoint x="440" y="744" as="targetPoint" />
          </mxGeometry>
        </mxCell>
        <mxCell id="a59o5ENuI0x_Ca8bcvk9-47" value="1, n" style="edgeLabel;html=1;align=center;verticalAlign=middle;resizable=0;points=[];" parent="a59o5ENuI0x_Ca8bcvk9-46" vertex="1" connectable="0">
          <mxGeometry x="0.475" y="2" relative="1" as="geometry">
            <mxPoint x="-1" y="1" as="offset" />
          </mxGeometry>
        </mxCell>
        <mxCell id="a59o5ENuI0x_Ca8bcvk9-48" value="" style="shape=ellipse;container=1;horizontal=1;horizontalStack=0;resizeParent=1;resizeParentMax=0;resizeLast=0;html=1;dashed=0;collapsible=0;" parent="1" vertex="1">
          <mxGeometry x="260" y="713" width="120" height="70" as="geometry" />
        </mxCell>
        <mxCell id="a59o5ENuI0x_Ca8bcvk9-49" value="ENSEIGNER" style="html=1;strokeColor=none;fillColor=none;align=center;verticalAlign=middle;rotatable=0;whiteSpace=wrap;" parent="a59o5ENuI0x_Ca8bcvk9-48" vertex="1">
          <mxGeometry y="16.8" width="120" height="17.5" as="geometry" />
        </mxCell>
        <mxCell id="a59o5ENuI0x_Ca8bcvk9-50" value="" style="line;strokeWidth=1;fillColor=none;rotatable=0;labelPosition=right;points=[];portConstraint=eastwest;dashed=0;resizeWidth=1;" parent="a59o5ENuI0x_Ca8bcvk9-48" vertex="1">
          <mxGeometry y="32.09" width="120" height="5.83" as="geometry" />
        </mxCell>
        <mxCell id="a59o5ENuI0x_Ca8bcvk9-51" style="edgeStyle=orthogonalEdgeStyle;rounded=0;orthogonalLoop=1;jettySize=auto;html=1;entryX=0.5;entryY=1;entryDx=0;entryDy=0;endArrow=none;endFill=0;exitX=0.5;exitY=0;exitDx=0;exitDy=0;" parent="1" source="a59o5ENuI0x_Ca8bcvk9-48" target="a59o5ENuI0x_Ca8bcvk9-34" edge="1">
          <mxGeometry relative="1" as="geometry">
            <mxPoint x="600" y="779" as="sourcePoint" />
            <mxPoint x="320" y="629" as="targetPoint" />
          </mxGeometry>
        </mxCell>
        <mxCell id="a59o5ENuI0x_Ca8bcvk9-52" value="1, 1" style="edgeLabel;html=1;align=center;verticalAlign=middle;resizable=0;points=[];" parent="a59o5ENuI0x_Ca8bcvk9-51" vertex="1" connectable="0">
          <mxGeometry x="0.475" y="2" relative="1" as="geometry">
            <mxPoint x="1" y="-6" as="offset" />
          </mxGeometry>
        </mxCell>
        <mxCell id="Nz-iYSKh5eHmXdB2YgQG-2" value="" style="endArrow=classic;html=1;rounded=0;exitX=1;exitY=1;exitDx=0;exitDy=0;" parent="1" source="Nz-iYSKh5eHmXdB2YgQG-6" edge="1">
          <mxGeometry relative="1" as="geometry">
            <mxPoint x="360" y="560" as="sourcePoint" />
            <mxPoint x="270" y="430" as="targetPoint" />
          </mxGeometry>
        </mxCell>
        <mxCell id="Nz-iYSKh5eHmXdB2YgQG-7" value="" style="endArrow=none;html=1;rounded=0;entryX=1;entryY=0;entryDx=0;entryDy=0;endFill=0;" parent="1" target="Nz-iYSKh5eHmXdB2YgQG-6" edge="1">
          <mxGeometry relative="1" as="geometry">
            <mxPoint x="270" y="380" as="sourcePoint" />
            <mxPoint x="270" y="426" as="targetPoint" />
            <Array as="points" />
          </mxGeometry>
        </mxCell>
        <mxCell id="Nz-iYSKh5eHmXdB2YgQG-6" value="I" style="ellipse;whiteSpace=wrap;html=1;aspect=fixed;" parent="1" vertex="1">
          <mxGeometry x="230" y="393" width="20" height="20" as="geometry" />
        </mxCell>
      </root>
    </mxGraphModel>
  </diagram>
</mxfile>
